<mxfile host="app.diagrams.net" modified="2023-06-11T12:42:49.286Z" agent="Mozilla/5.0 (Windows NT 10.0; Win64; x64) AppleWebKit/537.36 (KHTML, like Gecko) Chrome/114.0.0.0 Safari/537.36" etag="N33tB9SqvwT7fbY7fQaF" version="21.3.8" type="device">
  <diagram name="페이지-1" id="ilTycXGcQEC7P1KjRxtY">
    <mxGraphModel dx="1050" dy="549" grid="1" gridSize="10" guides="1" tooltips="1" connect="1" arrows="1" fold="1" page="1" pageScale="1" pageWidth="827" pageHeight="1169" math="0" shadow="0">
      <root>
        <mxCell id="0" />
        <mxCell id="1" parent="0" />
        <mxCell id="XiqdvJZgYnGLgTElsW7T-5" style="edgeStyle=orthogonalEdgeStyle;rounded=0;orthogonalLoop=1;jettySize=auto;html=1;exitX=1;exitY=0.5;exitDx=0;exitDy=0;entryX=0;entryY=0.5;entryDx=0;entryDy=0;entryPerimeter=0;" parent="1" source="XiqdvJZgYnGLgTElsW7T-1" target="XiqdvJZgYnGLgTElsW7T-2" edge="1">
          <mxGeometry relative="1" as="geometry" />
        </mxCell>
        <mxCell id="FoSNxoamMuhkXlRKIg11-7" style="edgeStyle=orthogonalEdgeStyle;rounded=0;orthogonalLoop=1;jettySize=auto;html=1;entryX=0;entryY=0.5;entryDx=0;entryDy=0;entryPerimeter=0;" edge="1" parent="1" source="XiqdvJZgYnGLgTElsW7T-1" target="FoSNxoamMuhkXlRKIg11-5">
          <mxGeometry relative="1" as="geometry" />
        </mxCell>
        <mxCell id="XiqdvJZgYnGLgTElsW7T-1" value="&lt;font style=&quot;font-size: 22px;&quot;&gt;원본 음성&lt;br&gt;(wav)&lt;br&gt;&lt;/font&gt;" style="rounded=0;whiteSpace=wrap;html=1;" parent="1" vertex="1">
          <mxGeometry x="110" y="130" width="110" height="80" as="geometry" />
        </mxCell>
        <mxCell id="FoSNxoamMuhkXlRKIg11-14" value="" style="edgeStyle=orthogonalEdgeStyle;rounded=0;orthogonalLoop=1;jettySize=auto;html=1;" edge="1" parent="1" source="XiqdvJZgYnGLgTElsW7T-2" target="FoSNxoamMuhkXlRKIg11-11">
          <mxGeometry relative="1" as="geometry" />
        </mxCell>
        <mxCell id="XiqdvJZgYnGLgTElsW7T-2" value="&lt;font style=&quot;font-size: 22px;&quot;&gt;대본&lt;/font&gt;" style="shape=note;whiteSpace=wrap;html=1;backgroundOutline=1;darkOpacity=0.05;" parent="1" vertex="1">
          <mxGeometry x="350" y="120" width="80" height="100" as="geometry" />
        </mxCell>
        <mxCell id="XiqdvJZgYnGLgTElsW7T-14" value="&lt;font style=&quot;font-size: 14px;&quot;&gt;화자 분리&lt;br&gt;화자 인식&lt;br&gt;STT&lt;/font&gt;" style="text;html=1;strokeColor=none;fillColor=none;align=center;verticalAlign=middle;whiteSpace=wrap;rounded=0;" parent="1" vertex="1">
          <mxGeometry x="240" y="100" width="130" height="70" as="geometry" />
        </mxCell>
        <mxCell id="XiqdvJZgYnGLgTElsW7T-20" value="&lt;font style=&quot;font-size: 22px;&quot;&gt;요약&lt;/font&gt;" style="shape=note;whiteSpace=wrap;html=1;backgroundOutline=1;darkOpacity=0.05;" parent="1" vertex="1">
          <mxGeometry x="650" y="120" width="80" height="100" as="geometry" />
        </mxCell>
        <mxCell id="XiqdvJZgYnGLgTElsW7T-25" value="" style="rounded=0;whiteSpace=wrap;html=1;" parent="1" vertex="1">
          <mxGeometry x="20" y="10" width="20" height="10" as="geometry" />
        </mxCell>
        <mxCell id="FoSNxoamMuhkXlRKIg11-25" style="edgeStyle=orthogonalEdgeStyle;rounded=0;orthogonalLoop=1;jettySize=auto;html=1;exitX=0.75;exitY=1;exitDx=0;exitDy=0;" edge="1" parent="1" source="XiqdvJZgYnGLgTElsW7T-26">
          <mxGeometry relative="1" as="geometry">
            <mxPoint x="850" y="460" as="targetPoint" />
          </mxGeometry>
        </mxCell>
        <mxCell id="XiqdvJZgYnGLgTElsW7T-26" value="" style="rounded=0;whiteSpace=wrap;html=1;" parent="1" vertex="1">
          <mxGeometry x="837" y="460" width="20" height="10" as="geometry" />
        </mxCell>
        <mxCell id="FoSNxoamMuhkXlRKIg11-16" value="" style="edgeStyle=orthogonalEdgeStyle;rounded=0;orthogonalLoop=1;jettySize=auto;html=1;" edge="1" parent="1" source="FoSNxoamMuhkXlRKIg11-5" target="FoSNxoamMuhkXlRKIg11-12">
          <mxGeometry relative="1" as="geometry" />
        </mxCell>
        <mxCell id="FoSNxoamMuhkXlRKIg11-5" value="&lt;font style=&quot;font-size: 22px;&quot;&gt;텍스트&lt;/font&gt;" style="shape=note;whiteSpace=wrap;html=1;backgroundOutline=1;darkOpacity=0.05;" vertex="1" parent="1">
          <mxGeometry x="350" y="265" width="80" height="100" as="geometry" />
        </mxCell>
        <mxCell id="FoSNxoamMuhkXlRKIg11-6" value="&lt;font style=&quot;font-size: 22px;&quot;&gt;요약&lt;/font&gt;" style="shape=note;whiteSpace=wrap;html=1;backgroundOutline=1;darkOpacity=0.05;" vertex="1" parent="1">
          <mxGeometry x="650" y="265" width="80" height="100" as="geometry" />
        </mxCell>
        <mxCell id="FoSNxoamMuhkXlRKIg11-9" value="&lt;font style=&quot;font-size: 14px;&quot;&gt;STT&lt;/font&gt;" style="text;html=1;strokeColor=none;fillColor=none;align=center;verticalAlign=middle;whiteSpace=wrap;rounded=0;" vertex="1" parent="1">
          <mxGeometry x="280" y="245" width="60" height="30" as="geometry" />
        </mxCell>
        <mxCell id="FoSNxoamMuhkXlRKIg11-15" value="" style="edgeStyle=orthogonalEdgeStyle;rounded=0;orthogonalLoop=1;jettySize=auto;html=1;" edge="1" parent="1" source="FoSNxoamMuhkXlRKIg11-11" target="XiqdvJZgYnGLgTElsW7T-20">
          <mxGeometry relative="1" as="geometry" />
        </mxCell>
        <mxCell id="FoSNxoamMuhkXlRKIg11-11" value="&lt;font style=&quot;font-size: 22px;&quot;&gt;Kobart&lt;/font&gt;" style="rounded=0;whiteSpace=wrap;html=1;fillColor=#dae8fc;strokeColor=#6c8ebf;" vertex="1" parent="1">
          <mxGeometry x="470" y="140" width="120" height="60" as="geometry" />
        </mxCell>
        <mxCell id="FoSNxoamMuhkXlRKIg11-17" value="" style="edgeStyle=orthogonalEdgeStyle;rounded=0;orthogonalLoop=1;jettySize=auto;html=1;" edge="1" parent="1" source="FoSNxoamMuhkXlRKIg11-12" target="FoSNxoamMuhkXlRKIg11-6">
          <mxGeometry relative="1" as="geometry" />
        </mxCell>
        <mxCell id="FoSNxoamMuhkXlRKIg11-12" value="&lt;font style=&quot;font-size: 22px;&quot;&gt;Kobart&lt;/font&gt;" style="rounded=0;whiteSpace=wrap;html=1;fillColor=#f8cecc;strokeColor=#b85450;" vertex="1" parent="1">
          <mxGeometry x="470" y="285" width="120" height="60" as="geometry" />
        </mxCell>
        <mxCell id="FoSNxoamMuhkXlRKIg11-21" value="" style="edgeStyle=orthogonalEdgeStyle;rounded=0;orthogonalLoop=1;jettySize=auto;html=1;" edge="1" parent="1" source="FoSNxoamMuhkXlRKIg11-19" target="FoSNxoamMuhkXlRKIg11-11">
          <mxGeometry relative="1" as="geometry" />
        </mxCell>
        <mxCell id="FoSNxoamMuhkXlRKIg11-19" value="&lt;font style=&quot;font-size: 14px;&quot;&gt;방송 대본 데이터&lt;/font&gt;" style="ellipse;whiteSpace=wrap;html=1;" vertex="1" parent="1">
          <mxGeometry x="475" y="50" width="110" height="60" as="geometry" />
        </mxCell>
        <mxCell id="FoSNxoamMuhkXlRKIg11-22" value="" style="edgeStyle=orthogonalEdgeStyle;rounded=0;orthogonalLoop=1;jettySize=auto;html=1;" edge="1" parent="1" target="FoSNxoamMuhkXlRKIg11-12">
          <mxGeometry relative="1" as="geometry">
            <mxPoint x="530" y="380" as="sourcePoint" />
          </mxGeometry>
        </mxCell>
        <mxCell id="FoSNxoamMuhkXlRKIg11-23" value="&lt;font style=&quot;font-size: 14px;&quot;&gt;(수정)&lt;br&gt;방송 대본 데이터&lt;/font&gt;" style="ellipse;whiteSpace=wrap;html=1;" vertex="1" parent="1">
          <mxGeometry x="475" y="380" width="110" height="60" as="geometry" />
        </mxCell>
        <mxCell id="FoSNxoamMuhkXlRKIg11-24" style="edgeStyle=orthogonalEdgeStyle;rounded=0;orthogonalLoop=1;jettySize=auto;html=1;entryX=1.24;entryY=1.7;entryDx=0;entryDy=0;entryPerimeter=0;" edge="1" parent="1" target="XiqdvJZgYnGLgTElsW7T-26">
          <mxGeometry relative="1" as="geometry">
            <mxPoint x="830" y="457" as="sourcePoint" />
          </mxGeometry>
        </mxCell>
      </root>
    </mxGraphModel>
  </diagram>
</mxfile>
